<?xml version="1.0" standalone="no"?>
<!DOCTYPE svg PUBLIC "-//W3C//DTD SVG 1.1//EN" "http://www.w3.org/Graphics/SVG/1.1/DTD/svg11.dtd" >
<svg xmlns="http://www.w3.org/2000/svg">
<metadata></metadata>
<defs>
<font id="creative_typeregular" horiz-adv-x="1081" >
<font-face units-per-em="2048" ascent="1536" descent="-512" />
<missing-glyph horiz-adv-x="1024" />
<glyph horiz-adv-x="0" />
<glyph horiz-adv-x="682" />
<glyph unicode=" "  horiz-adv-x="1024" />
<glyph unicode="&#x09;" horiz-adv-x="1024" />
<glyph unicode="&#xa0;" horiz-adv-x="1024" />
<glyph unicode="!" horiz-adv-x="374" d="M164 0v45h45v-45h-45zM164 264v1331h47v-1331h-47z" />
<glyph unicode="&#x22;" horiz-adv-x="649" d="M164 1348l88 270l53 2h2l-102 -272h-39h-2zM344 1348l88 270l53 2l-102 -272h-39z" />
<glyph unicode="#" horiz-adv-x="876" d="M61 614v48l226 -5l39 136l-265 4v39l277 -2l78 256l45 -13l-76 -243h176l80 256l35 -11l-72 -245h211v-48l-225 2l-39 -133l264 -4v-39l-276 2l-78 -258l-45 15l76 243h-177l-79 -258l-35 13l71 245h-211zM330 657l176 -2l41 136l-176 2z" />
<glyph unicode="'" horiz-adv-x="471" d="M164 1348l88 270l53 2h2l-102 -272h-39h-2z" />
<glyph unicode="(" horiz-adv-x="770" d="M164 618v13q1 192 26 363.5t63 294.5t90.5 229.5t100 173t99.5 120.5l35 -30q-50 -53 -95 -116t-96.5 -167.5t-88.5 -223.5t-61.5 -287.5t-25.5 -356.5v-13q0 -361 98 -550q98 -188 297 -209l-4 -45q-225 18 -334 231q-104 198 -104 573z" />
<glyph unicode=")" horiz-adv-x="772" d="M164 1767l6 48q225 -21 334 -234q104 -198 104 -571v-13q-1 -192 -26.5 -364t-63.5 -294.5t-91 -229.5t-100 -173.5t-100 -121.5l-32 32q50 53 95 116.5t96 167t87.5 223t61.5 288t26 356.5v13q0 362 -98 551q-103 189 -299 206z" />
<glyph unicode="*" horiz-adv-x="1077" d="M164 1229v45l328 -8l-230 229l33 35l225 -238l-12 328h47l2 -334l225 244l33 -33l-227 -231h325v-47l-329 8l235 -236l-33 -33l-227 240l12 -326h-47l-4 324l-221 -240l-33 33l234 240h-336z" />
<glyph unicode="+" horiz-adv-x="1077" d="M164 614v48h356l4 354h45l-12 -354l356 10v-47h-356l-4 -357h-45l12 355z" />
<glyph unicode="," horiz-adv-x="264" d="M61 -227l89 270l53 2l-103 -272h-39z" />
<glyph unicode="-" d="M164 784v39l754 -2v-45z" />
<glyph unicode="." horiz-adv-x="167" d="M61 0v45h45v-45h-45z" />
<glyph unicode="/" horiz-adv-x="903" d="M61 20l740 1573l41 -24l-748 -1569z" />
<glyph unicode="0" horiz-adv-x="1722" d="M205 623v24q0 136 42.5 297.5t123.5 302.5q91 158 222 258t300 111h18q91 0 193 -53t188 -154q210 -238 224 -629q2 -10 2 -30q0 -132 -39.5 -266.5t-118.5 -243.5q-89 -123 -223.5 -194t-313.5 -71q-95 0 -198.5 36t-190.5 108q-100 80 -161.5 206.5t-67.5 297.5z M252 623q11 -302 211 -469q82 -65 178 -98t182 -33q322 0 498 243q75 103 112 230.5t37 253.5v30q-14 370 -213 598q-81 94 -174 142.5t-172 48.5h-14q-156 -10 -277.5 -103t-207.5 -243q-78 -133 -119 -289t-41 -287v-24z" />
<glyph unicode="1" horiz-adv-x="923" d="M205 1081l473 529l41 -17v-1593h-47v1532l-432 -481z" />
<glyph unicode="2" horiz-adv-x="1306" d="M205 45q121 55 264 147t264 209q322 311 322 648q0 281 -203 407q-179 113 -535 113v47q365 0 560 -119q225 -140 225 -448q0 -359 -336 -680q-196 -187 -453 -322h772v-47h-872z" />
<glyph unicode="3" horiz-adv-x="1144" d="M205 23q6 0 18 2q3 1 20.5 3.5t30.5 4.5q105 23 175 49q270 89 407 250q117 136 117 321q0 193 -185 291q-171 92 -487 92l-6 47q14 3 37 11q77 27 90 32q141 61 209 134q59 62 59 131q0 38 -31 69q-31 35 -94 60q-126 49 -321 49h-37v47h37q153 0 270.5 -31t177.5 -92 q45 -48 45 -102q0 -88 -71 -162q-51 -56 -148 -109q-67 -32 -90 -41q235 -16 383 -94q212 -112 209 -332q0 -200 -129 -352q-98 -116 -279 -205q-90 -43 -192.5 -73t-152 -39t-58.5 -9z" />
<glyph unicode="4" horiz-adv-x="1335" d="M123 543l807 1065l43 -15v-1038h239v-47h-239v-508h-47v508l-785 -2zM188 553l738 2v969z" />
<glyph unicode="5" horiz-adv-x="1116" d="M205 1022l96 571h535v-47h-496l-80 -477q330 -6 522 -115q101 -56 155.5 -140t53.5 -185v-6q-3 -245 -286 -430q-184 -119 -480 -213l-14 45q286 88 469 206q263 172 266 394v4q-3 178 -186 284q-192 109 -527 109h-28z" />
<glyph unicode="6" horiz-adv-x="1384" d="M205 483q0 60 8 154q17 160 63.5 299.5t111.5 244t150 190.5t172.5 144t184.5 99l18 -43q-94 -40 -177 -95t-164.5 -137t-143.5 -182t-107 -235.5t-61 -290.5q-3 -37 -6 -84q32 96 88 174q66 93 162.5 151t218.5 64l2 -23l-2 23l14 2q66 -2 141 -32.5t138 -88.5 q153 -142 164 -368v-19q0 -78 -29 -157t-88 -144q-144 -154 -389 -154q-96 3 -182 35q-3 0 -5.5 1t-6 2.5t-5.5 2.5q-9 3 -18 9q-138 53 -199 178q-53 114 -53 280zM268 358q8 -167 148 -260q15 -9 61 -32l10 -5q89 -38 187 -38q229 0 354 139q105 111 105 268v16 q-11 207 -150 336q-57 53 -123.5 81t-122.5 28h-10q-212 -13 -346 -197q-55 -75 -84 -162.5t-29 -160.5v-13z" />
<glyph unicode="7" horiz-adv-x="1120" d="M102 1546v47h916l-619 -1601l-45 18l596 1536h-848z" />
<glyph unicode="8" horiz-adv-x="1421" d="M205 356v15q0 81 33 175t96 177q96 130 254 184q-68 22 -127 72q-123 107 -131 278v15q0 130 94 227q107 115 309 115q124 0 223 -62q131 -79 136 -225v-12q0 -61 -24.5 -131.5t-72.5 -132.5q-64 -83 -157 -127q111 -26 204 -107q164 -143 175 -368v-19q0 -78 -30.5 -157 t-92.5 -144q-147 -154 -412 -154q-167 4 -299 82q-77 48 -125.5 123.5t-52.5 175.5zM252 358q8 -169 156 -260q122 -75 274 -75q243 0 379 139q108 114 108 268v16q-8 205 -157 336q-60 53 -131 81t-131 28h-13q-225 -14 -366 -197q-57 -74 -88 -162.5t-31 -160.5v-13z M377 1260q8 -151 115 -244q44 -38 96 -59t94 -21h8q167 8 268 143q42 55 65.5 119.5t23.5 116.5l-3 10q-5 120 -112 186q-88 56 -199 56q-179 0 -276 -101q-80 -83 -80 -194v-12z" />
<glyph unicode="9" horiz-adv-x="1357" d="M205 1044v15q0 79 30.5 171.5t88.5 172.5q141 199 374 213h15q61 0 139 -33l2 2q174 -78 246 -239q53 -116 53 -291q0 -51 -4 -125q-11 -156 -59.5 -293.5t-117.5 -238t-161 -185t-180.5 -139.5t-186.5 -97l-18 43q94 40 178.5 92.5t172 133t153 175.5t112 225.5 t58.5 277.5q-27 -59 -68 -103q-137 -151 -383 -151q-153 0 -278 82q-71 46 -116.5 119.5t-49.5 172.5zM252 1047q8 -169 145 -256q109 -74 252 -74q227 0 348 135q103 112 103 264v17q-8 202 -146 329q-56 52 -121.5 79.5t-119.5 27.5h-13q-206 -11 -338 -193 q-54 -72 -82 -158.5t-28 -158.5v-12z" />
<glyph unicode=":" horiz-adv-x="167" d="M61 0v45h45v-45h-45zM61 1548v45h45v-45h-45z" />
<glyph unicode=";" horiz-adv-x="266" d="M61 -227l89 270l55 2l-103 -272h-41zM154 1548v45h45v-45h-45z" />
<glyph unicode="&#x3c;" horiz-adv-x="630" d="M164 836l270 284l33 -33l-254 -253l250 -252l-33 -33z" />
<glyph unicode="=" horiz-adv-x="876" d="M61 614v48l754 -11v-37h-754zM61 797l2 39l752 -2v-48z" />
<glyph unicode="&#x3e;" horiz-adv-x="630" d="M164 584l254 254l-250 249l33 35l266 -286l-270 -285z" />
<glyph unicode="?" horiz-adv-x="1101" d="M164 1567l2 47q391 -12 579 -123q193 -111 193 -324v-8q-3 -250 -244 -436q-162 -124 -426 -213v-246h-47v281l17 4q264 84 428 211q222 172 225 401v6q0 184 -170 283q-181 108 -557 117zM221 0v47h47v-47h-47z" />
<glyph unicode="A" horiz-adv-x="1546" d="M20 8l732 1585h43l731 -1581l-43 -20l-115 248h-1190l-117 -250zM201 287h1145l-572 1241z" />
<glyph unicode="B" horiz-adv-x="1341" d="M205 -25v1643h22h54q191 0 321 -31q126 -27 182 -92q39 -42 39 -100q0 -92 -98 -166q-80 -66 -207 -105q-114 -36 -199 -47q292 -3 467 -45q247 -59 353 -176q80 -86 80 -199q0 -201 -160 -354q-125 -122 -338 -205q-109 -43 -231.5 -73t-190.5 -39l-68 -9zM252 27 q8 1 29.5 4.5t31.5 5.5q92 13 215 47q337 94 500 252q143 143 143 321q0 98 -67 168q-66 72 -191 121q-244 92 -661 92v-1011zM252 1092l24 6q31 6 127 32q190 56 293 136q80 61 80 129q0 40 -26 69q-33 36 -88 58q-130 49 -381 49h-29v-479z" />
<glyph unicode="C" horiz-adv-x="1333" d="M63 635v10q5 372 361 645q251 195 661 326l13 -45q-392 -123 -645 -318q-337 -262 -342 -610v-8q0 -284 260 -436q276 -161 839 -176l-2 -48q-574 15 -862 183q-283 162 -283 471v6z" />
<glyph unicode="D" horiz-adv-x="1681" d="M205 -25v1643h22q22 0 63.5 1t61.5 1q611 -3 908 -158q299 -155 299 -467v-10q-6 -279 -218 -498q-165 -173 -454 -307q-147 -67 -313 -117t-249 -66.5t-94 -16.5zM252 31h4q37 7 86 18q138 30 289 82q450 151 678 389q196 203 202 465v10q-3 281 -272 426 q-292 152 -887 152q-16 0 -50 -1t-50 -1v-1540z" />
<glyph unicode="E" horiz-adv-x="1478" d="M205 0v1591h1055v-45h-1008v-456h493v-48h-493v-995h1206v-47h-1253z" />
<glyph unicode="F" horiz-adv-x="1280" d="M205 0v1591h1055v-45h-1008v-456h493v-48h-493v-1042h-47z" />
<glyph unicode="G" horiz-adv-x="1628" d="M125 631v10q3 380 364 655q251 193 652 320l14 -45q-392 -123 -637 -311q-343 -264 -348 -619v-10q3 -299 281 -449q290 -159 903 -159h104v483h-536v47h583v-576h-22q-45 -2 -129 -2q-622 0 -926 166q-303 161 -303 484v6z" />
<glyph unicode="H" horiz-adv-x="1777" d="M205 0v1595h45v-508h1276v508h47v-1595h-47v1040h-1276v-1040h-45z" />
<glyph unicode="I" horiz-adv-x="456" d="M205 0v1595h47v-1595h-47z" />
<glyph unicode="J" horiz-adv-x="1099" d="M123 25q10 2 33 6q53 11 86 20q147 47 262 119q380 238 385 702v676l-668 -2v47h715v-716v-5v-6q-2 -138 -37 -258t-94.5 -208.5t-126.5 -153t-148 -115.5q-56 -35 -118 -63.5t-109.5 -45t-89 -27.5t-61.5 -14.5t-23 -3.5z" />
<glyph unicode="K" horiz-adv-x="1703" d="M205 0v1591h47v-491l1284 514l18 -43l-997 -400l1085 -1159l-34 -30l-1098 1171l-258 -102v-1051h-47z" />
<glyph unicode="L" horiz-adv-x="1386" d="M205 0v1593h47v-1546h1073v-47h-1120z" />
<glyph unicode="M" horiz-adv-x="1951" d="M205 0v1593h65l709 -499l704 499h64v-1593h-47v1548l-707 -501h-26l-715 501v-1548h-47z" />
<glyph unicode="N" horiz-adv-x="1792" d="M205 0v1595h90l1245 -497v497h47v-1595h-47v1049l-1288 512v-1561h-47z" />
<glyph unicode="O" horiz-adv-x="1853" d="M61 621v26q0 136 57 297.5t163 302.5q122 158 295 258t393 111h24q117 0 250.5 -53t249.5 -152q128 -111 208 -270t89 -361q0 -5 1 -15t1 -15q0 -133 -52.5 -269t-158.5 -245q-252 -261 -704 -261q-124 0 -259.5 35.5t-252.5 106.5q-132 80 -214.5 206.5t-89.5 297.5z M109 623q14 -304 280 -467q109 -67 239.5 -100t248.5 -33q431 0 669 245q100 102 149.5 230t49.5 252q0 18 -2 28q-9 192 -84.5 342t-196.5 256q-108 93 -234.5 143t-234.5 50h-22q-209 -11 -373.5 -105.5t-280.5 -244.5q-101 -132 -154.5 -287.5t-53.5 -284.5v-24z" />
<glyph unicode="P" horiz-adv-x="1185" d="M205 0v506v559v528v23h24q29 2 82 2q411 0 609 -107q202 -104 202 -311v-6v-6q0 -190 -145 -338q-116 -122 -305 -205q-181 -83 -420 -133v-512h-47zM252 561q3 1 51 10q76 16 193 54q299 102 448 258q130 137 133 305v6q-2 93 -44.5 160t-133.5 116q-188 101 -588 101 h-59v-506v-504z" />
<glyph unicode="Q" horiz-adv-x="1857" d="M61 623v26q0 138 56 300.5t164 303.5q122 158 296 257.5t394 109.5h24q119 0 252.5 -52t249.5 -151q128 -113 208 -272t89 -361q2 -10 2 -32q0 -133 -52.5 -269t-158.5 -245q-40 -40 -63 -60l211 -229l-35 -31l-215 234q-242 -177 -606 -177q-123 0 -259 35.5t-253 106.5 q-133 81 -215 207.5t-89 298.5zM109 625q14 -304 280 -467q109 -68 240 -101.5t248 -33.5q347 0 575 163l-145 156l34 33l148 -162q33 26 61 57q100 102 149.5 230t49.5 252q0 20 -2 30q-9 192 -84.5 342t-196.5 256q-109 94 -235.5 143.5t-235.5 49.5h-22 q-211 -10 -375.5 -103.5t-280.5 -244.5q-101 -134 -155 -291q-53 -151 -53 -276v-9v-24z" />
<glyph unicode="R" horiz-adv-x="1316" d="M205 0v504v561v528v23h22q15 0 43 1t41 1q408 -3 609 -107q202 -105 202 -317v-8q-3 -187 -145 -336q-112 -118 -307 -207q-21 -9 -45 -18l569 -615l-33 -30l-581 626q-182 -69 -328 -94v-512h-47zM252 559q6 2 23 5.5t28 6.5q79 16 191 54q297 100 448 258 q130 133 133 305v6q0 180 -178 276q-197 101 -586 101q-9 0 -29 -1t-30 -1v-504v-506z" />
<glyph unicode="S" horiz-adv-x="1191" d="M123 1190q0 126 121 221q94 77 250 127q80 27 171 47t136.5 26.5t52.5 6.5l4 -47q-24 -2 -63 -8q-63 -9 -158 -31q-250 -63 -365 -156q-102 -83 -102 -186q3 -86 80 -148q65 -50 209 -96q43 -14 162.5 -48.5t202 -64.5t145.5 -69q161 -98 161 -260q0 -119 -74.5 -218.5 t-201.5 -170.5q-121 -67 -272 -103.5t-306 -36.5v48q149 0 295 34.5t260 98.5q118 67 185 155.5t67 192.5q0 94 -63 160q-53 59 -164 106q-76 32 -237 78.5t-218 66.5q-169 62 -231 142q-47 60 -47 133z" />
<glyph unicode="T" horiz-adv-x="1415" d="M20 1544v47h1375v-47h-664v-1544h-47v1544h-664z" />
<glyph unicode="U" horiz-adv-x="1548" d="M164 1386v207h47v-207q0 -308 6.5 -496.5t28.5 -334.5q50 -329 211 -446q116 -84 317 -84q204 0 322 92q110 86 166 274q27 89 43 199.5t22.5 271.5t8 282.5t1.5 352.5v96h47v-96q0 -228 -1.5 -353.5t-9 -282.5t-23.5 -269q-26 -187 -79 -313t-147 -199 q-129 -103 -350 -103q-214 0 -344 95q-124 88 -184 276q-53 163 -67.5 395.5t-14.5 642.5z" />
<glyph unicode="V" horiz-adv-x="1507" d="M20 1585l43 21l691 -1538l692 1538l41 -21l-713 -1585h-43z" />
<glyph unicode="W" horiz-adv-x="1957" d="M123 1593h47l246 -1546l547 502h30l549 -500l246 1544v2h24l3 -2l4 2h16l-252 -1595h-57l-549 500l-543 -500h-57zM1542 49l246 1544z" />
<glyph unicode="X" horiz-adv-x="1679" d="M123 14l686 803l-653 764l34 29l650 -758l649 760l37 -29l-656 -766l686 -803l-34 -30l-682 796l-682 -796z" />
<glyph unicode="Y" horiz-adv-x="1601" d="M123 1581l39 25l639 -1026l639 1030l39 -25l-656 -1059v-526h-47v530z" />
<glyph unicode="Z" horiz-adv-x="1611" d="M123 2v57l1288 1489h-1210v47h1259v-59l-1284 -1489h1313v-47h-1364z" />
<glyph unicode="_" horiz-adv-x="1138" d="M61 -18l2 38h1014v-47z" />
<glyph unicode="a" horiz-adv-x="1546" d="M20 8l732 1585h43l731 -1581l-43 -20l-115 248h-1190l-117 -250zM201 287h1145l-572 1241z" />
<glyph unicode="b" horiz-adv-x="1341" d="M205 -25v1643h22h54q191 0 321 -31q126 -27 182 -92q39 -42 39 -100q0 -92 -98 -166q-80 -66 -207 -105q-114 -36 -199 -47q292 -3 467 -45q247 -59 353 -176q80 -86 80 -199q0 -201 -160 -354q-125 -122 -338 -205q-109 -43 -231.5 -73t-190.5 -39l-68 -9zM252 27 q8 1 29.5 4.5t31.5 5.5q92 13 215 47q337 94 500 252q143 143 143 321q0 98 -67 168q-66 72 -191 121q-244 92 -661 92v-1011zM252 1092l24 6q31 6 127 32q190 56 293 136q80 61 80 129q0 40 -26 69q-33 36 -88 58q-130 49 -381 49h-29v-479z" />
<glyph unicode="c" horiz-adv-x="1333" d="M63 635v10q5 372 361 645q251 195 661 326l13 -45q-392 -123 -645 -318q-337 -262 -342 -610v-8q0 -284 260 -436q276 -161 839 -176l-2 -48q-574 15 -862 183q-283 162 -283 471v6z" />
<glyph unicode="d" horiz-adv-x="1681" d="M205 -25v1643h22q22 0 63.5 1t61.5 1q611 -3 908 -158q299 -155 299 -467v-10q-6 -279 -218 -498q-165 -173 -454 -307q-147 -67 -313 -117t-249 -66.5t-94 -16.5zM252 31h4q37 7 86 18q138 30 289 82q450 151 678 389q196 203 202 465v10q-3 281 -272 426 q-292 152 -887 152q-16 0 -50 -1t-50 -1v-1540z" />
<glyph unicode="e" horiz-adv-x="1478" d="M205 0v1591h1055v-45h-1008v-456h493v-48h-493v-995h1206v-47h-1253z" />
<glyph unicode="f" horiz-adv-x="1280" d="M205 0v1591h1055v-45h-1008v-456h493v-48h-493v-1042h-47z" />
<glyph unicode="g" horiz-adv-x="1628" d="M125 631v10q3 380 364 655q251 193 652 320l14 -45q-392 -123 -637 -311q-343 -264 -348 -619v-10q3 -299 281 -449q290 -159 903 -159h104v483h-536v47h583v-576h-22q-45 -2 -129 -2q-622 0 -926 166q-303 161 -303 484v6z" />
<glyph unicode="h" horiz-adv-x="1777" d="M205 0v1595h45v-508h1276v508h47v-1595h-47v1040h-1276v-1040h-45z" />
<glyph unicode="i" horiz-adv-x="456" d="M205 0v1595h47v-1595h-47z" />
<glyph unicode="j" horiz-adv-x="1099" d="M123 25q10 2 33 6q53 11 86 20q147 47 262 119q380 238 385 702v676l-668 -2v47h715v-716v-5v-6q-2 -138 -37 -258t-94.5 -208.5t-126.5 -153t-148 -115.5q-56 -35 -118 -63.5t-109.5 -45t-89 -27.5t-61.5 -14.5t-23 -3.5z" />
<glyph unicode="k" horiz-adv-x="1703" d="M205 0v1591h47v-491l1284 514l18 -43l-997 -400l1085 -1159l-34 -30l-1098 1171l-258 -102v-1051h-47z" />
<glyph unicode="l" horiz-adv-x="1386" d="M205 0v1593h47v-1546h1073v-47h-1120z" />
<glyph unicode="m" horiz-adv-x="1951" d="M205 0v1593h65l709 -499l704 499h64v-1593h-47v1548l-707 -501h-26l-715 501v-1548h-47z" />
<glyph unicode="n" horiz-adv-x="1792" d="M205 0v1595h90l1245 -497v497h47v-1595h-47v1049l-1288 512v-1561h-47z" />
<glyph unicode="o" horiz-adv-x="1853" d="M61 621v26q0 136 57 297.5t163 302.5q122 158 295 258t393 111h24q117 0 250.5 -53t249.5 -152q128 -111 208 -270t89 -361q0 -5 1 -15t1 -15q0 -133 -52.5 -269t-158.5 -245q-252 -261 -704 -261q-124 0 -259.5 35.5t-252.5 106.5q-132 80 -214.5 206.5t-89.5 297.5z M109 623q14 -304 280 -467q109 -67 239.5 -100t248.5 -33q431 0 669 245q100 102 149.5 230t49.5 252q0 18 -2 28q-9 192 -84.5 342t-196.5 256q-108 93 -234.5 143t-234.5 50h-22q-209 -11 -373.5 -105.5t-280.5 -244.5q-101 -132 -154.5 -287.5t-53.5 -284.5v-24z" />
<glyph unicode="p" horiz-adv-x="1185" d="M205 0v506v559v528v23h24q29 2 82 2q411 0 609 -107q202 -104 202 -311v-6v-6q0 -190 -145 -338q-116 -122 -305 -205q-181 -83 -420 -133v-512h-47zM252 561q3 1 51 10q76 16 193 54q299 102 448 258q130 137 133 305v6q-2 93 -44.5 160t-133.5 116q-188 101 -588 101 h-59v-506v-504z" />
<glyph unicode="q" horiz-adv-x="1857" d="M61 623v26q0 138 56 300.5t164 303.5q122 158 296 257.5t394 109.5h24q119 0 252.5 -52t249.5 -151q128 -113 208 -272t89 -361q2 -10 2 -32q0 -133 -52.5 -269t-158.5 -245q-40 -40 -63 -60l211 -229l-35 -31l-215 234q-242 -177 -606 -177q-123 0 -259 35.5t-253 106.5 q-133 81 -215 207.5t-89 298.5zM109 625q14 -304 280 -467q109 -68 240 -101.5t248 -33.5q347 0 575 163l-145 156l34 33l148 -162q33 26 61 57q100 102 149.5 230t49.5 252q0 20 -2 30q-9 192 -84.5 342t-196.5 256q-109 94 -235.5 143.5t-235.5 49.5h-22 q-211 -10 -375.5 -103.5t-280.5 -244.5q-101 -134 -155 -291q-53 -151 -53 -276v-9v-24z" />
<glyph unicode="r" horiz-adv-x="1316" d="M205 0v504v561v528v23h22q15 0 43 1t41 1q408 -3 609 -107q202 -105 202 -317v-8q-3 -187 -145 -336q-112 -118 -307 -207q-21 -9 -45 -18l569 -615l-33 -30l-581 626q-182 -69 -328 -94v-512h-47zM252 559q6 2 23 5.5t28 6.5q79 16 191 54q297 100 448 258 q130 133 133 305v6q0 180 -178 276q-197 101 -586 101q-9 0 -29 -1t-30 -1v-504v-506z" />
<glyph unicode="s" horiz-adv-x="1253" d="M123 1190q0 126 121 221q94 77 250 127q80 27 171 47t136.5 26.5t52.5 6.5l4 -47q-24 -2 -63 -8q-63 -9 -158 -31q-250 -63 -365 -156q-102 -83 -102 -186q3 -86 80 -148q65 -50 209 -96q43 -14 162.5 -48.5t202 -64.5t145.5 -69q161 -98 161 -260q0 -119 -74.5 -218.5 t-201.5 -170.5q-121 -67 -272 -103.5t-306 -36.5v48q149 0 295 34.5t260 98.5q118 67 185 155.5t67 192.5q0 94 -63 160q-53 59 -164 106q-76 32 -237 78.5t-218 66.5q-169 62 -231 142q-47 60 -47 133z" />
<glyph unicode="t" horiz-adv-x="1415" d="M20 1544v47h1375v-47h-664v-1544h-47v1544h-664z" />
<glyph unicode="u" horiz-adv-x="1548" d="M164 1386v207h47v-207q0 -308 6.5 -496.5t28.5 -334.5q50 -329 211 -446q116 -84 317 -84q204 0 322 92q110 86 166 274q27 89 43 199.5t22.5 271.5t8 282.5t1.5 352.5v96h47v-96q0 -228 -1.5 -353.5t-9 -282.5t-23.5 -269q-26 -187 -79 -313t-147 -199 q-129 -103 -350 -103q-214 0 -344 95q-124 88 -184 276q-53 163 -67.5 395.5t-14.5 642.5z" />
<glyph unicode="v" horiz-adv-x="1507" d="M20 1585l43 21l691 -1538l692 1538l41 -21l-713 -1585h-43z" />
<glyph unicode="w" horiz-adv-x="1957" d="M123 1593h47l246 -1546l547 502h30l549 -500l246 1544v2h24l3 -2l4 2h16l-252 -1595h-57l-549 500l-543 -500h-57zM1542 49l246 1544z" />
<glyph unicode="x" horiz-adv-x="1679" d="M123 14l686 803l-653 764l34 29l650 -758l649 760l37 -29l-656 -766l686 -803l-34 -30l-682 796l-682 -796z" />
<glyph unicode="y" horiz-adv-x="1601" d="M123 1581l39 25l639 -1026l639 1030l39 -25l-656 -1059v-526h-47v530z" />
<glyph unicode="z" horiz-adv-x="1611" d="M123 2v57l1288 1489h-1210v47h1259v-59l-1284 -1489h1313v-47h-1364z" />
<glyph unicode="|" horiz-adv-x="1705" d="M205 -514v2666h47v-2666h-47z" />
<glyph unicode="&#xad;" d="M164 784v39l754 -2v-45z" />
<glyph unicode="&#xd0;" horiz-adv-x="1800" />
<glyph unicode="&#x2000;" horiz-adv-x="1076" />
<glyph unicode="&#x2001;" horiz-adv-x="2152" />
<glyph unicode="&#x2002;" horiz-adv-x="1076" />
<glyph unicode="&#x2003;" horiz-adv-x="2152" />
<glyph unicode="&#x2004;" horiz-adv-x="717" />
<glyph unicode="&#x2005;" horiz-adv-x="538" />
<glyph unicode="&#x2006;" horiz-adv-x="358" />
<glyph unicode="&#x2007;" horiz-adv-x="358" />
<glyph unicode="&#x2008;" horiz-adv-x="269" />
<glyph unicode="&#x2009;" horiz-adv-x="430" />
<glyph unicode="&#x200a;" horiz-adv-x="119" />
<glyph unicode="&#x2010;" d="M164 784v39l754 -2v-45z" />
<glyph unicode="&#x2011;" d="M164 784v39l754 -2v-45z" />
<glyph unicode="&#x2012;" d="M164 784v39l754 -2v-45z" />
<glyph unicode="&#x2013;" horiz-adv-x="1351" d="M164 784v39l1024 -2v-45z" />
<glyph unicode="&#x2014;" horiz-adv-x="2375" d="M164 784v39l2048 -2v-45z" />
<glyph unicode="&#x202f;" horiz-adv-x="430" />
<glyph unicode="&#x205f;" horiz-adv-x="538" />
<glyph unicode="&#x25fc;" horiz-adv-x="1607" d="M0 0v1608h1608v-1608h-1608z" />
</font>
</defs>
</svg>
