<?xml version="1.0" encoding="utf-8"?>
<!DOCTYPE svg PUBLIC "-//W3C//DTD SVG 1.1//EN" "http://www.w3.org/Graphics/SVG/1.1/DTD/svg11.dtd">
<svg style="width:308px;height:308px;" version="1.1" id="图形" xmlns="http://www.w3.org/2000/svg" xmlns:xlink="http://www.w3.org/1999/xlink" x="0px" y="0px" width="1024px" height="1024px" viewBox="0 0 1024 1024" enable-background="new 0 0 1024 1024" xml:space="preserve">
  <path class="svgpath" data-index="path_0" fill="#DC9FB4" d="M512 1013.351c276.89 0 501.351-224.461 501.351-501.351 0-276.89-224.461-501.351-501.351-501.351C235.11 10.649 10.649 235.11 10.649 512 10.649 788.89 235.11 1013.351 512 1013.351zM512 47.514c256.527 0 464.486 207.96 464.486 464.486 0 256.556-207.96 464.486-464.486 464.486C255.474 976.486 47.514 768.556 47.514 512 47.514 255.474 255.474 47.514 512 47.514zM343.157 537.015l0.204-0.205 259.453 259.425 26.126-26.156L369.518 510.625 628.882 251.29l-26.126-26.156L343.42 484.469l-0.116-0.117-26.186 26.156 0.117 0.117-0.177 0.176L343.157 537.015z" />

</svg>
