<?xml version="1.0" encoding="utf-8"?>
<!DOCTYPE svg PUBLIC "-//W3C//DTD SVG 1.1//EN" "http://www.w3.org/Graphics/SVG/1.1/DTD/svg11.dtd">
<svg style="width:308px;height:308px;" version="1.1" id="图形" xmlns="http://www.w3.org/2000/svg" xmlns:xlink="http://www.w3.org/1999/xlink" x="0px" y="0px" width="1024px" height="1024px" viewBox="0 0 1024 1024" enable-background="new 0 0 1024 1024" xml:space="preserve">
  <path class="svgpath" data-index="path_0" fill="#272636" d="M113.148 109.34C69.412 109.34 34 144.75 34 188.484c0 43.672 35.412 79.104 79.148 79.104 43.692 0 79.102-35.432 79.102-79.104C192.25 144.75 156.838 109.34 113.148 109.34zM306.358 136.382c-21.072 0-38.372 17.278-38.372 38.396l0 27.378c0 21.068 17.3 38.346 38.372 38.346L952.66 240.502c21.094 0 38.372-17.278 38.372-38.346L991.032 174.778c0-21.12-17.278-38.396-38.372-38.396L306.358 136.382zM113.148 442.062C69.412 442.062 34 477.472 34 521.186c0 43.692 35.412 79.126 79.148 79.126 43.692 0 79.102-35.434 79.102-79.126C192.25 477.472 156.838 442.062 113.148 442.062zM267.986 534.852c0 21.094 17.3 38.376 38.372 38.376L952.66 573.228c21.094 0 38.372-17.282 38.372-38.376l0-27.378c0-21.092-17.278-38.37-38.372-38.37L306.358 469.104c-21.072 0-38.372 17.278-38.372 38.37L267.986 534.852zM113.148 774.76C69.412 774.76 34 810.148 34 853.886c0 43.692 35.412 79.146 79.148 79.146 43.692 0 79.102-35.456 79.102-79.146C192.25 810.148 156.838 774.76 113.148 774.76zM267.986 867.574c0 21.07 17.3 38.374 38.372 38.374L952.66 905.948c21.094 0 38.372-17.302 38.372-38.374l0-27.4c0-21.094-17.278-38.376-38.372-38.376L306.358 801.798c-21.072 0-38.372 17.282-38.372 38.376L267.986 867.574z" />

</svg>
