<?xml version="1.0" encoding="utf-8"?>
<!DOCTYPE svg PUBLIC "-//W3C//DTD SVG 1.1//EN" "http://www.w3.org/Graphics/SVG/1.1/DTD/svg11.dtd">
<svg style="width:308px;height:308px;" version="1.1" id="图形" xmlns="http://www.w3.org/2000/svg" xmlns:xlink="http://www.w3.org/1999/xlink" x="0px" y="0px" width="1024px" height="1024px" viewBox="0 0 1024 1024" enable-background="new 0 0 1024 1024" xml:space="preserve">
  <path class="svgpath" data-index="path_0" fill="#a9b7b7" d="M178.709171 203.956182l-89.551572 0c-14.128789 0-25.582655 11.453866-25.582655 25.582655s11.453866 25.582655 25.582655 25.582655l89.551572 0c14.128789 0 25.582655-11.453866 25.582655-25.582655S192.83796 203.956182 178.709171 203.956182z" />
<path class="svgpath" data-index="path_1" fill="#a9b7b7" d="M322.407967 255.121492l610.201579 0c14.128789 0 25.582655-11.453866 25.582655-25.582655s-11.453866-25.582655-25.582655-25.582655L322.407967 203.956182c-14.128789 0-25.582655 11.453866-25.582655 25.582655S308.279179 255.121492 322.407967 255.121492z" />
<path class="svgpath" data-index="path_2" fill="#a9b7b7" d="M178.709171 484.923318l-89.551572 0c-14.128789 0-25.582655 11.453866-25.582655 25.582655s11.453866 25.582655 25.582655 25.582655l89.551572 0c14.128789 0 25.582655-11.453866 25.582655-25.582655S192.83796 484.923318 178.709171 484.923318z" />
<path class="svgpath" data-index="path_3" fill="#a9b7b7" d="M932.609547 484.923318 322.407967 484.923318c-14.128789 0-25.582655 11.453866-25.582655 25.582655s11.453866 25.582655 25.582655 25.582655l610.201579 0c14.128789 0 25.582655-11.453866 25.582655-25.582655S946.738335 484.923318 932.609547 484.923318z" />
<path class="svgpath" data-index="path_4" fill="#a9b7b7" d="M178.709171 765.891478l-89.551572 0c-14.128789 0-25.582655 11.452843-25.582655 25.582655s11.453866 25.582655 25.582655 25.582655l89.551572 0c14.128789 0 25.582655-11.452843 25.582655-25.582655S192.83796 765.891478 178.709171 765.891478z" />
<path class="svgpath" data-index="path_5" fill="#a9b7b7" d="M932.609547 765.891478 322.407967 765.891478c-14.128789 0-25.582655 11.453866-25.582655 25.582655s11.453866 25.582655 25.582655 25.582655l610.201579 0c14.128789 0 25.582655-11.453866 25.582655-25.582655S946.738335 765.891478 932.609547 765.891478z" />

</svg>
