<?xml version="1.0" encoding="utf-8"?>
<!DOCTYPE svg PUBLIC "-//W3C//DTD SVG 1.1//EN" "http://www.w3.org/Graphics/SVG/1.1/DTD/svg11.dtd">
<svg style="width:308px;height:308px;" version="1.1" id="图形" xmlns="http://www.w3.org/2000/svg" xmlns:xlink="http://www.w3.org/1999/xlink" x="0px" y="0px" width="1024px" height="1024px" viewBox="0 0 1024 1024" enable-background="new 0 0 1024 1024" xml:space="preserve">
  <path class="svgpath" data-index="path_0" fill="#a9b7b7" d="M978.58816 944.04608 710.3488 675.77856c53.91872-64.8384 86.37312-148.11904 86.37312-239.01184 0-206.6304-167.48032-374.112-374.10944-374.112-206.59328 0-374.11328 167.4816-374.11328 374.112 0 206.592 167.52 374.11456 374.11328 374.11456 90.912 0 174.17088-32.45824 239.01056-86.37696l268.24192 268.27008L978.58816 944.04608zM87.87968 436.76672c0-184.57472 150.13632-334.73152 334.7328-334.73152 184.55552 0 334.73152 150.1568 334.73152 334.73152 0 184.57728-150.176 334.7328-334.73152 334.7328C238.01728 771.49952 87.87968 621.344 87.87968 436.76672z" />

</svg>
