<?xml version="1.0" encoding="utf-8"?>
<!DOCTYPE svg PUBLIC "-//W3C//DTD SVG 1.1//EN" "http://www.w3.org/Graphics/SVG/1.1/DTD/svg11.dtd">
<svg style="width:308px;height:308px;" version="1.1" id="图形" xmlns="http://www.w3.org/2000/svg" xmlns:xlink="http://www.w3.org/1999/xlink" x="0px" y="0px" width="1024px" height="1024px" viewBox="0 0 1024 1024" enable-background="new 0 0 1024 1024" xml:space="preserve">
  <path class="svgpath" data-index="path_0" fill="#272636" d="M159.232073 333.293899c0 26.126031 8.5487 50.254567 22.99676 69.749574-2.25639-9.856485-3.450589-20.1182-3.450589-30.659277 0-75.56707 61.252039-136.819109 136.820132-136.819109 10.541077 0 20.801768 1.194198 30.658254 3.450589-19.495006-14.44806-43.623543-22.99676-69.749574-22.99676C211.74303 216.018915 159.232073 268.529873 159.232073 333.293899zM737.302861 121.822556c-87.536682 0-178.356131 54.570873-226.456638 167.341263C461.02656 173.10964 371.467825 118.309546 285.344329 118.309546c-0.01228 0-0.024559 0-0.036839 0l0.036839 39.09132c130.139989 0.019443 225.617527 202.711841 225.617527 202.711841s95.018074-199.180412 226.342028-199.180412c48.081065 0 92.726891 19.964704 125.672234 56.269561 38.328957 42.165332 58.599629 103.360066 58.599629 176.866197 0 250.124687-333.422835 425.864224-410.078703 462.932468C434.629353 820.009026 100.538299 644.919289 100.538299 395.959124c0-74.479295 20.385283-136.877437 58.96188-180.397626 33.269731-37.507242 77.935-58.159608 125.807311-58.159608L285.30749 118.309546C170.299129 118.311593 61.445956 216.019938 61.445956 395.959124c0 308.781622 450.087928 504.163521 450.087928 504.163521s449.13216-195.381899 449.13216-506.052544C960.666044 215.294414 851.790358 121.822556 737.302861 121.822556z" />

</svg>
