<?xml version="1.0" encoding="utf-8"?>
<!DOCTYPE svg PUBLIC "-//W3C//DTD SVG 1.1//EN" "http://www.w3.org/Graphics/SVG/1.1/DTD/svg11.dtd">
<svg style="width:308px;height:308px;" version="1.1" id="图形" xmlns="http://www.w3.org/2000/svg" xmlns:xlink="http://www.w3.org/1999/xlink" x="0px" y="0px" width="1024px" height="1024px" viewBox="0 0 1024 1024" enable-background="new 0 0 1024 1024" xml:space="preserve">
  <path class="svgpath" data-index="path_0" fill="#555" d="M711.179378 162.6112 361.790578 512l349.3888 349.3888c8.897422 8.897422 8.897422 23.278933 0 32.176356-8.874667 8.897422-23.278933 8.897422-32.176356 0L334.210844 548.772978c-30.424178-27.170133-20.024889-18.295467-21.549511-19.820089-4.664889-4.664889-6.735644-10.8544-6.508089-16.952889-0.227556-6.121244 1.8432-12.288 6.508089-16.952889 1.524622-1.524622 46.603378-45.6704 48.378311-46.671644L679.003022 130.412089c8.897422-8.897422 23.301689-8.897422 32.176356 0C720.0768 139.309511 720.0768 153.713778 711.179378 162.6112z" />

</svg>
